<svg width="127" height="38" viewBox="0 0 127 38" fill="none" xmlns="http://www.w3.org/2000/svg">
<path d="M21.5044 26.6737C20.797 27.7735 19.8298 28.5624 18.6043 29.0391C17.3778 29.5179 16.0333 29.7561 14.5719 29.7561C13.5819 29.7561 12.6738 29.6014 11.849 29.29C11.023 28.9799 10.3745 28.5261 9.90301 27.928C9.43156 27.3309 9.1956 26.5783 9.1956 25.67C9.1956 24.666 9.44358 23.8054 9.93914 23.0884C10.4338 22.3714 11.1765 21.7981 12.1667 21.3675C13.1573 20.938 14.36 20.7224 15.7743 20.7224C17.7082 20.7224 19.3821 20.9621 20.797 21.4394C21.3957 21.6422 21.9839 21.9019 22.5657 22.1984V22.3C22.5657 24.1171 22.2121 25.5745 21.5044 26.6737ZM24.5107 2.87076C22.364 2.05869 19.8777 1.6524 17.0477 1.6524C14.1235 1.6524 11.4593 2.0715 9.05482 2.90617C6.64937 3.74397 4.62096 4.61645 2.97082 5.52347L6.29581 11.9044C6.81457 11.5705 7.58036 11.1636 8.59499 10.6857C9.60879 10.2085 10.7877 9.78944 12.1319 9.43107C13.4757 9.07246 14.926 8.89308 16.4817 8.89308C18.2739 8.89308 19.7357 9.31217 20.8677 10.148C21.9994 10.9846 22.5657 12.1442 22.5657 13.6251V17.4251C21.5535 16.882 20.3307 16.4023 18.8872 15.9911C17.3778 15.5607 15.7508 15.346 14.0065 15.346C11.1765 15.346 8.71238 15.7758 6.61417 16.6364C4.51536 17.4964 2.88838 18.7276 1.73352 20.3284C0.577119 21.9304 0 23.8539 0 26.0994C0 28.2982 0.506716 30.1507 1.52077 31.656C2.53451 33.1617 3.91416 34.2974 5.65941 35.0614C7.40311 35.8256 9.38398 36.209 11.6011 36.209C13.8645 36.209 15.9042 35.8147 17.7199 35.026C19.535 34.2367 20.985 33.0903 22.0701 31.584C22.2526 31.3312 22.4141 31.0661 22.5657 30.7957V35.4917H31.4077V12.1191C31.4077 9.87364 30.7945 7.97364 29.568 6.41975C28.3415 4.86682 26.6562 3.68388 24.5107 2.87076Z" fill="white"/>
<path d="M71.2222 2.51103H60.2576L48.3033 14.1375V2.51103H39.4609V35.4902H48.3033V18.6961L61.7432 35.4902H72.6371L57.2164 16.1326L71.2222 2.51103Z" fill="white"/>
<path d="M86.826 19.8342V2.51178H77.9844V38L100.479 18.1686V35.491H109.32V0.00240707L86.826 19.8342Z" fill="white"/>
<path d="M118.164 31.0132C118.164 33.4881 120.143 35.4941 122.584 35.4941C125.026 35.4941 127.006 33.4881 127.006 31.0132C127.006 28.5385 125.026 26.5325 122.584 26.5325C120.143 26.5325 118.164 28.5385 118.164 31.0132Z" fill="#E74362"/>
</svg>
