<svg width="294" height="275" viewBox="0 0 294 275" fill="none" xmlns="http://www.w3.org/2000/svg">
<path d="M99.75 12.8906C99.75 5.74707 92.7281 0 84 0C75.2719 0 68.25 5.74707 68.25 12.8906V34.375H42C18.8344 34.375 0 49.79 0 68.75V77.3438V103.125V240.625C0 259.585 18.8344 275 42 275H252C275.166 275 294 259.585 294 240.625V103.125V77.3438V68.75C294 49.79 275.166 34.375 252 34.375H225.75V12.8906C225.75 5.74707 218.728 0 210 0C201.272 0 194.25 5.74707 194.25 12.8906V34.375H99.75V12.8906ZM31.5 103.125H84V133.203H31.5V103.125ZM31.5 158.984H84V193.359H31.5V158.984ZM115.5 158.984H178.5V193.359H115.5V158.984ZM210 158.984H262.5V193.359H210V158.984ZM262.5 133.203H210V103.125H262.5V133.203ZM262.5 219.141V240.625C262.5 245.352 257.775 249.219 252 249.219H210V219.141H262.5ZM178.5 219.141V249.219H115.5V219.141H178.5ZM84 219.141V249.219H42C36.225 249.219 31.5 245.352 31.5 240.625V219.141H84ZM178.5 133.203H115.5V103.125H178.5V133.203Z" fill="#E0E0E0"/>
</svg>
