<svg xmlns="http://www.w3.org/2000/svg" xmlns:xlink="http://www.w3.org/1999/xlink" version="1.1" id="Layer_1" x="0px" y="0px" viewBox="0 0 100 100" style="enable-background:new 0 0 100 100;" xml:space="preserve">
<g>
	<path d="M76.6,14h-0.2l2.7-5.3c0.5-1,0.1-2.2-0.9-2.7c-1-0.5-2.2-0.1-2.7,0.9L71.9,14H54.4l2.7-5.3c0.5-1,0.1-2.2-0.9-2.7   c-1-0.5-2.2-0.1-2.7,0.9L49.9,14H32.4l2.7-5.3c0.5-1,0.1-2.2-0.9-2.7c-1-0.5-2.2-0.1-2.7,0.9L27.9,14h-4.5c-5.2,0-9.4,4.2-9.4,9.3   v58.3c0,5.1,4.2,9.3,9.4,9.3h53.2c5.2,0,9.4-4.2,9.4-9.3V23.3C86,18.2,81.8,14,76.6,14z M82,81.7c0,2.9-2.4,5.3-5.4,5.3H23.4   c-3,0-5.4-2.4-5.4-5.3V23.3c0-2.9,2.4-5.3,5.4-5.3h2.4l-2.2,4.3c-0.5,1-0.1,2.2,0.9,2.7c0.3,0.2,0.6,0.2,0.9,0.2   c0.7,0,1.4-0.4,1.8-1.1l3.2-6.2h17.5l-2.2,4.3c-0.5,1-0.1,2.2,0.9,2.7c0.3,0.2,0.6,0.2,0.9,0.2c0.7,0,1.4-0.4,1.8-1.1l3.2-6.2h17.5   l-2.2,4.3c-0.5,1-0.1,2.2,0.9,2.7c0.3,0.2,0.6,0.2,0.9,0.2c0.7,0,1.4-0.4,1.8-1.1l3.2-6.2h2.2c3,0,5.4,2.4,5.4,5.3V81.7z" fill="#e74362"/>
	<path d="M34.3,30h-4.6c-2.6,0-4.7,2.1-4.7,4.7v4.6c0,2.6,2.1,4.7,4.7,4.7h4.6c2.6,0,4.7-2.1,4.7-4.7v-4.6C39,32.1,36.9,30,34.3,30z    M35,39.3c0,0.4-0.3,0.7-0.7,0.7h-4.6c-0.4,0-0.7-0.3-0.7-0.7v-4.6c0-0.4,0.3-0.7,0.7-0.7h4.6c0.4,0,0.7,0.3,0.7,0.7V39.3z" fill="#e74362"/>
	<path d="M52.3,30h-4.6c-2.6,0-4.7,2.1-4.7,4.7v4.6c0,2.6,2.1,4.7,4.7,4.7h4.6c2.6,0,4.7-2.1,4.7-4.7v-4.6C57,32.1,54.9,30,52.3,30z    M53,39.3c0,0.4-0.3,0.7-0.7,0.7h-4.6c-0.4,0-0.7-0.3-0.7-0.7v-4.6c0-0.4,0.3-0.7,0.7-0.7h4.6c0.4,0,0.7,0.3,0.7,0.7V39.3z" fill="#e74362"/>
	<path d="M70.3,30h-4.6c-2.6,0-4.7,2.1-4.7,4.7v4.6c0,2.6,2.1,4.7,4.7,4.7h4.6c2.6,0,4.7-2.1,4.7-4.7v-4.6C75,32.1,72.9,30,70.3,30z    M71,39.3c0,0.4-0.3,0.7-0.7,0.7h-4.6c-0.4,0-0.7-0.3-0.7-0.7v-4.6c0-0.4,0.3-0.7,0.7-0.7h4.6c0.4,0,0.7,0.3,0.7,0.7V39.3z" fill="#e74362"/>
	<path d="M34.3,48h-4.6c-2.6,0-4.7,2.1-4.7,4.7v4.6c0,2.6,2.1,4.7,4.7,4.7h4.6c2.6,0,4.7-2.1,4.7-4.7v-4.6C39,50.1,36.9,48,34.3,48z    M35,57.3c0,0.4-0.3,0.7-0.7,0.7h-4.6c-0.4,0-0.7-0.3-0.7-0.7v-4.6c0-0.4,0.3-0.7,0.7-0.7h4.6c0.4,0,0.7,0.3,0.7,0.7V57.3z" fill="#e74362"/>
	<path d="M52.3,48h-4.6c-2.6,0-4.7,2.1-4.7,4.7v4.6c0,2.6,2.1,4.7,4.7,4.7h4.6c2.6,0,4.7-2.1,4.7-4.7v-4.6C57,50.1,54.9,48,52.3,48z    M53,57.3c0,0.4-0.3,0.7-0.7,0.7h-4.6c-0.4,0-0.7-0.3-0.7-0.7v-4.6c0-0.4,0.3-0.7,0.7-0.7h4.6c0.4,0,0.7,0.3,0.7,0.7V57.3z" fill="#e74362"/>
	<path d="M70.3,48h-4.6c-2.6,0-4.7,2.1-4.7,4.7v4.6c0,2.6,2.1,4.7,4.7,4.7h4.6c2.6,0,4.7-2.1,4.7-4.7v-4.6C75,50.1,72.9,48,70.3,48z    M71,57.3c0,0.4-0.3,0.7-0.7,0.7h-4.6c-0.4,0-0.7-0.3-0.7-0.7v-4.6c0-0.4,0.3-0.7,0.7-0.7h4.6c0.4,0,0.7,0.3,0.7,0.7V57.3z" fill="#e74362"/>
	<path d="M34.3,66h-4.6c-2.6,0-4.7,2.1-4.7,4.7v4.6c0,2.6,2.1,4.7,4.7,4.7h4.6c2.6,0,4.7-2.1,4.7-4.7v-4.6C39,68.1,36.9,66,34.3,66z    M35,75.3c0,0.4-0.3,0.7-0.7,0.7h-4.6c-0.4,0-0.7-0.3-0.7-0.7v-4.6c0-0.4,0.3-0.7,0.7-0.7h4.6c0.4,0,0.7,0.3,0.7,0.7V75.3z" fill="#e74362"/>
	<path d="M52.3,66h-4.6c-2.6,0-4.7,2.1-4.7,4.7v4.6c0,2.6,2.1,4.7,4.7,4.7h4.6c2.6,0,4.7-2.1,4.7-4.7v-4.6C57,68.1,54.9,66,52.3,66z    M53,75.3c0,0.4-0.3,0.7-0.7,0.7h-4.6c-0.4,0-0.7-0.3-0.7-0.7v-4.6c0-0.4,0.3-0.7,0.7-0.7h4.6c0.4,0,0.7,0.3,0.7,0.7V75.3z" fill="#e74362"/>
	<path d="M70.3,66h-4.6c-2.6,0-4.7,2.1-4.7,4.7v4.6c0,2.6,2.1,4.7,4.7,4.7h4.6c2.6,0,4.7-2.1,4.7-4.7v-4.6C75,68.1,72.9,66,70.3,66z    M71,75.3c0,0.4-0.3,0.7-0.7,0.7h-4.6c-0.4,0-0.7-0.3-0.7-0.7v-4.6c0-0.4,0.3-0.7,0.7-0.7h4.6c0.4,0,0.7,0.3,0.7,0.7V75.3z" fill="#e74362"/>
</g>
</svg>