<svg width="37" height="40" viewBox="0 0 37 40" fill="none" xmlns="http://www.w3.org/2000/svg">
<path d="M0 6.75C0 5.22891 1.14911 4 2.57143 4H33.4286C34.8509 4 36 5.22891 36 6.75C36 8.27109 34.8509 9.5 33.4286 9.5H2.57143C1.14911 9.5 0 8.27109 0 6.75ZM0 20.5C0 18.9789 1.14911 17.75 2.57143 17.75H33.4286C34.8509 17.75 36 18.9789 36 20.5C36 22.0211 34.8509 23.25 33.4286 23.25H2.57143C1.14911 23.25 0 22.0211 0 20.5ZM36 34.25C36 35.7711 34.8509 37 33.4286 37H2.57143C1.14911 37 0 35.7711 0 34.25C0 32.7289 1.14911 31.5 2.57143 31.5H33.4286C34.8509 31.5 36 32.7289 36 34.25Z" fill="white"/>
</svg>
