<svg width="28" height="24" viewBox="0 0 28 24" fill="none" xmlns="http://www.w3.org/2000/svg">
<path d="M8.23128 20.2881L8.46623 20.367C10.1531 20.9335 12.0243 21.25 14 21.25C17.7681 21.25 21.1599 20.0975 23.5987 18.2576C26.0372 16.418 27.5 13.9135 27.5 11.1875C27.5 8.46146 26.0372 5.95705 23.5987 4.11736C21.1599 2.27747 17.7681 1.125 14 1.125C10.232 1.125 6.84014 2.27747 4.40136 4.11736C1.96286 5.95705 0.500035 8.46146 0.500035 11.1875C0.500035 13.3295 1.40389 15.3282 2.97109 16.9775L3.12556 17.14L3.10689 17.3635C2.99379 18.7178 2.43121 19.9042 1.85778 20.7881L1.85649 20.7901C1.53642 21.2784 1.22133 21.6725 0.983066 21.9425C0.863517 22.0798 0.765615 22.1818 0.700488 22.248C0.658178 22.2934 0.627636 22.3218 0.608229 22.3398L0.595821 22.3513C0.595304 22.3518 0.594789 22.3523 0.594276 22.3528C0.494186 22.4489 0.47743 22.5686 0.521839 22.6676C0.57215 22.7797 0.701999 22.875 0.875035 22.875C2.3553 22.875 3.86843 22.4471 5.15035 21.9313L8.23128 20.2881ZM8.23128 20.2881L8.02623 20.4273M8.23128 20.2881L8.02623 20.4273M8.02623 20.4273C7.40402 20.8497 6.3746 21.437 5.15089 21.9311L8.02623 20.4273Z" fill="#C9C5C5" stroke="#313131"/>
</svg>
