<svg width="277" height="271" viewBox="0 0 277 271" fill="none" xmlns="http://www.w3.org/2000/svg">
<g clip-path="url(#clip0_31_901)">
<path d="M129.898 2.22305C135.2 -0.741016 141.746 -0.741016 147.102 2.22305L240.049 54.1471L242.375 55.0469V55.5232L268.29 70.026C275.106 73.8369 278.461 81.6705 276.459 89.0807C274.457 96.4908 267.586 101.678 259.742 101.678H17.3125C9.46779 101.678 2.59689 96.4908 0.595137 89.0807C-1.40662 81.6705 1.94768 73.8369 8.76447 70.026L34.625 55.5232V55.0469L37.0055 54.2L129.898 2.22305ZM34.625 118.562H69.25V220.188H90.8906V118.562H125.516V220.188H151.484V118.562H186.109V220.188H207.75V118.562H242.375V222.463C242.7 222.622 243.024 222.834 243.349 223.046L269.318 239.983C275.647 244.112 278.515 251.839 276.297 258.985C274.079 266.13 267.316 271 259.688 271H17.3125C9.6842 271 2.97561 266.13 0.757442 258.985C-1.46072 251.839 1.35256 244.112 7.73654 239.983L33.7053 223.046C34.0299 222.834 34.3545 222.675 34.6791 222.463V118.562H34.625Z" fill="#E0E0E0"/>
</g>
<defs>
<clipPath id="clip0_31_901">
<rect width="277" height="271" fill="white"/>
</clipPath>
</defs>
</svg>
