<svg width="55" height="55" viewBox="0 0 55 55" fill="none" xmlns="http://www.w3.org/2000/svg">
<path d="M55 27.5C55 42.6878 42.6878 55 27.5 55C12.3122 55 0 42.6878 0 27.5C0 12.3122 12.3122 0 27.5 0C42.6878 0 55 12.3122 55 27.5Z" fill="#E74362"/>
<g clip-path="url(#clip0_68_325)">
<path d="M33 19.5C33 18.2568 32.4732 17.0645 31.5355 16.1854C30.5979 15.3064 29.3261 14.8125 28 14.8125C26.6739 14.8125 25.4021 15.3064 24.4645 16.1854C23.5268 17.0645 23 18.2568 23 19.5C23 20.7432 23.5268 21.9355 24.4645 22.8146C25.4021 23.6936 26.6739 24.1875 28 24.1875C29.3261 24.1875 30.5979 23.6936 31.5355 22.8146C32.4732 21.9355 33 20.7432 33 19.5ZM20 19.5C20 17.5109 20.8429 15.6032 22.3431 14.1967C23.8434 12.7902 25.8783 12 28 12C30.1217 12 32.1566 12.7902 33.6569 14.1967C35.1571 15.6032 36 17.5109 36 19.5C36 21.4891 35.1571 23.3968 33.6569 24.8033C32.1566 26.2098 30.1217 27 28 27C25.8783 27 23.8434 26.2098 22.3431 24.8033C20.8429 23.3968 20 21.4891 20 19.5ZM17.0812 39.1875H38.9188C38.3625 35.4785 34.9625 32.625 30.8563 32.625H25.1438C21.0375 32.625 17.6375 35.4785 17.0812 39.1875ZM14 40.2598C14 34.4883 18.9875 29.8125 25.1438 29.8125H30.8563C37.0125 29.8125 42 34.4883 42 40.2598C42 41.2207 41.1687 42 40.1437 42H15.8563C14.8313 42 14 41.2207 14 40.2598Z" fill="white"/>
</g>
<defs>
<clipPath id="clip0_68_325">
<rect width="28" height="30" fill="white" transform="translate(14 12)"/>
</clipPath>
</defs>
</svg>
