<svg width="287" height="266" viewBox="0 0 287 266" fill="none" xmlns="http://www.w3.org/2000/svg">
<g clip-path="url(#clip0_31_858)">
<path d="M247.201 30.6003L253.984 36.8866C259.253 41.7702 259.253 49.6671 253.984 54.4987L237.672 69.669L211.831 45.7187L228.143 30.6003C233.412 25.7167 241.932 25.7167 247.145 30.6003H247.201ZM117.603 133.104L192.828 63.3308L218.669 87.2812L143.388 157.002C141.762 158.509 139.744 159.6 137.558 160.171L104.766 168.848L114.127 138.455C114.744 136.429 115.921 134.559 117.547 133.052L117.603 133.104ZM209.14 12.9882L98.5441 115.44C93.6674 119.96 90.1359 125.519 88.2861 131.597L72.2545 183.55C70.9092 187.914 72.1984 192.59 75.6738 195.811C79.1492 199.032 84.1941 200.227 88.9027 198.98L144.957 184.122C151.572 182.355 157.57 179.082 162.39 174.614L272.986 72.1628C288.738 57.564 288.738 33.8733 272.986 19.2745L266.204 12.9882C250.452 -1.61064 224.891 -1.61064 209.14 12.9882ZM49.3281 33.2499C22.0855 33.2499 0 53.7194 0 78.9687V220.281C0 245.53 22.0855 266 49.3281 266H201.797C229.039 266 251.125 245.53 251.125 220.281V162.094C251.125 155.184 245.127 149.625 237.672 149.625C230.217 149.625 224.219 155.184 224.219 162.094V220.281C224.219 231.763 214.185 241.062 201.797 241.062H49.3281C36.94 241.062 26.9062 231.763 26.9062 220.281V78.9687C26.9062 67.487 36.94 58.1874 49.3281 58.1874H112.109C119.565 58.1874 125.562 52.6284 125.562 45.7187C125.562 38.8089 119.565 33.2499 112.109 33.2499H49.3281Z" fill="#E0E0E0"/>
</g>
<defs>
<clipPath id="clip0_31_858">
<rect width="287" height="266" fill="white"/>
</clipPath>
</defs>
</svg>
