<svg width="683" height="683" viewBox="0 0 683 683" fill="none" xmlns="http://www.w3.org/2000/svg">
<path d="M318.667 90.9335C288.267 93.7335 262.133 96.8001 260.667 97.4668C256.267 99.7335 19.3333 411.733 18.9333 415.733C18.6666 417.733 19.3333 420.4 20.2666 421.6C21.1999 422.8 73.1999 462.933 135.867 510.533C211.067 568 250.667 597.333 252.8 597.333C254.4 597.333 257.333 596 259.067 594.267C260.933 592.667 315.6 521.467 380.533 436.133C476.933 309.6 498.667 280.267 498.667 276.933C498.667 273.333 479.467 162 478 157.333C477.6 156.133 470.8 150.267 462.667 144.133C454.667 138 448 132.533 448 131.867C448 129.467 458.8 127.333 471.333 127.333C489.333 127.467 494.8 129.867 518.667 147.867C542.533 165.867 556.267 177.867 568.267 191.467C588.533 214.4 608.4 223.733 634 222.267C655.333 221.067 665.867 215.467 663.467 206.133C662 200.267 657.467 199.067 646.533 202C632.933 205.467 617.733 204.267 606.133 198.933C598.933 195.467 594 191.333 575.733 172.933C559.6 156.667 548.4 146.933 532 134.667C507.867 116.667 501.467 113.067 486.8 109.867C470.533 106.267 455.333 108.4 433.867 117.333C429.867 119.067 429.6 118.933 407.6 102.267C386.8 86.4001 384.933 85.3335 379.733 85.4668C376.533 85.6001 349.067 88.0001 318.667 90.9335ZM397.6 117.733L415.733 131.6L403.2 145.6L390.667 159.733L384.4 157.733C365.067 151.733 341.6 163.867 335.2 183.067C328.533 203.2 336.933 223.733 355.733 232.933C362 236 365.067 236.667 373.333 236.667C390 236.533 401.867 229.2 409.333 214.4C412.667 207.6 413.333 204.667 413.333 196.667C413.333 188.667 412.667 185.733 409.333 179.2C406.267 172.933 405.733 171.067 407.067 169.333C411.867 163.067 429.867 144 430.933 144C431.6 144 438.667 148.933 446.4 154.933C454.267 160.933 460.8 165.867 460.8 165.867C460.933 166 465.333 190.267 470.667 220C477.867 260.667 479.867 274.533 478.8 276.267C476.933 279.2 254.933 570.8 252.667 573.2C251.2 574.667 233.6 561.733 146.4 495.333C89.0666 451.6 41.9999 414.933 42.1333 414.133C42.2666 412.533 263.067 122 268.133 116.667C270.4 114.4 276.533 113.6 322.267 109.2C350.8 106.533 375.2 104.267 376.8 104.133C378.4 104 387.067 109.733 397.6 117.733ZM385.067 178.267C398.533 188.133 398 206.267 384.133 215.6C375.733 221.2 363.067 218.8 355.867 210.267C347.2 200 351.733 182.533 364.667 176.533C370 174 380.533 174.933 385.067 178.267Z" fill="black" stroke="black" stroke-width="25"/>
<path d="M249.067 227.6C246 231.2 245.2 234.933 247.067 238.133C248 239.733 274.667 260.933 306.533 285.2C354.4 321.6 365.2 329.333 368.667 329.333C374.267 329.333 377.6 325.6 377.067 319.867C376.667 314.8 381.333 318.667 303.6 259.6C256.667 224 253.733 222.267 249.067 227.6Z" fill="black"/>
<path d="M216.8 269.467C214 273.467 214.133 277.733 217.067 281.067C218.267 282.533 240.8 300 267.067 319.867C308.933 351.867 315.2 356.133 318.933 355.733C321.6 355.467 324 354 325.733 351.733C328 348.667 328.133 347.6 326.8 344.4C325.733 341.867 309.6 328.8 276.933 304C237.467 274 227.733 267.2 223.867 266.933C220 266.533 218.533 267.067 216.8 269.467Z" fill="black"/>
<path d="M189.333 307.6C186 308.8 184 312.267 184 316.8C184 321.467 184.8 322.134 264.267 382.4C285.067 398.134 288.4 399.6 293.333 394.667C297.2 390.8 296.8 385.2 292.4 381.067C288.267 377.334 207.333 315.6 199.333 310.134C194.267 306.667 192.933 306.267 189.333 307.6Z" fill="black"/>
<path d="M154.8 351.467C151.2 356 151.333 359.067 155.067 363.2C159.467 368.134 249.467 436.267 253.467 437.734C261.2 440.667 268.133 431.067 263.2 424.4C261.733 422.667 239.067 404.667 212.667 384.534C177.6 357.867 163.733 348 161.067 348C158.8 348 156.533 349.334 154.8 351.467Z" fill="black"/>
<path d="M123.6 391.734C122.266 393.067 121.333 396.134 121.333 398.4C121.333 403.334 118.133 400.667 189.6 455.067C242.666 495.467 244.533 496.667 250 490.667C253.2 487.067 252.933 481.6 249.2 477.867C247.466 476.134 220.8 455.6 190 432.134C130.8 386.934 128.933 385.867 123.6 391.734Z" fill="black"/>
</svg>
