<?xml version="1.0" standalone="no"?><!DOCTYPE svg PUBLIC "-//W3C//DTD SVG 20010904//EN" "http://www.w3.org/TR/2001/REC-SVG-20010904/DTD/svg10.dtd"><svg xmlns="http://www.w3.org/2000/svg" version="1.0" width="512.000000pt" height="512.000000pt" viewBox="0 0 512.000000 512.000000" preserveAspectRatio="xMidYMid meet">

<g transform="translate(0.000000,512.000000) scale(0.100000,-0.100000)" fill="#e74362" stroke="none">
<path d="M115 4085 c-48 -17 -102 -76 -110 -119 -3 -17 -4 -661 -3 -1432 l3 -1401 28 -36 c15 -20 42 -45 60 -55 30 -16 169 -17 2446 -20 1604 -1 2426 1 2451 8 50 13 86 43 110 91 20 38 20 60 18 1452 l-3 1414 -28 36 c-15 20 -42 45 -60 55 -30 16 -169 17 -2452 19 -2060 2 -2426 0 -2460 -12z m4830 -1525 l0 -1365 -2385 0 -2385 0 -3 1355 c-1 745 0 1361 3 1368 3 10 486 12 2387 10 l2383 -3 0 -1365z"/>
<path d="M935 3731 c-50 -31 -66 -56 -92 -148 -13 -48 -35 -106 -48 -128 -57 -97 -175 -181 -290 -205 -60 -12 -108 -41 -139 -83 -21 -28 -21 -38 -24 -580 -2 -402 0 -564 9 -595 14 -52 63 -97 121 -113 141 -38 193 -65 261 -135 55 -56 82 -107 110 -207 26 -91 49 -127 99 -153 40 -21 3196 -21 3236 0 50 26 73 62 99 153 13 48 35 107 48 129 56 97 175 180 290 204 71 15 115 45 143 100 l22 44 0 546 0 546 -22 44 c-28 55 -72 85 -143 100 -115 24 -234 107 -290 204 -13 22 -35 81 -48 129 -15 53 -35 99 -48 114 -53 56 55 53 -1671 53 -1533 0 -1594 -1 -1623 -19z m3169 -163 c41 -156 91 -246 183 -335 63 -60 183 -125 268 -144 l55 -12 0 -517 0 -517 -55 -12 c-85 -19 -205 -84 -268 -144 -92 -89 -142 -179 -183 -334 -5 -19 -3083 -19 -3088 0 -42 156 -90 244 -184 334 -64 61 -182 125 -267 144 l-55 12 0 517 0 517 55 12 c85 19 203 83 267 144 94 90 142 178 184 335 3 9 320 12 1544 12 1224 0 1541 -3 1544 -12z"/>
<path d="M2383 3394 c-166 -36 -303 -112 -428 -238 -163 -164 -245 -364 -245 -596 0 -470 377 -850 845 -850 239 0 438 82 606 249 166 167 249 367 249 600 0 178 -45 327 -141 471 -127 189 -318 319 -539 366 -81 17 -265 16 -347 -2z m392 -188 c205 -70 356 -219 429 -425 29 -80 31 -95 31 -221 0 -122 -3 -143 -28 -215 -73 -207 -221 -356 -426 -429 -80 -29 -96 -31 -221 -31 -125 0 -141 2 -221 31 -272 97 -444 329 -457 615 -4 85 0 121 16 188 64 252 244 434 496 502 106 28 273 22 381 -15z"/>
<path d="M2508 3050 c-14 -11 -28 -32 -31 -48 -4 -22 -19 -37 -52 -57 -86 -50 -136 -165 -114 -264 24 -111 101 -182 220 -202 78 -14 109 -38 109 -86 0 -46 -14 -69 -50 -82 -40 -13 -76 0 -111 42 -35 42 -91 44 -125 3 -46 -52 -20 -122 67 -178 35 -23 52 -41 56 -60 7 -36 47 -68 83 -68 36 0 76 33 83 68 4 22 19 37 52 57 86 50 136 165 114 264 -24 111 -101 182 -220 202 -79 14 -109 38 -109 88 1 42 17 66 53 80 36 14 70 0 111 -44 41 -43 85 -47 121 -10 50 49 22 130 -66 187 -35 23 -52 41 -56 60 -7 36 -47 68 -83 68 -15 0 -39 -9 -52 -20z"/>
<path d="M923 2886 c-193 -63 -292 -281 -209 -463 33 -73 103 -144 174 -176 37 -17 66 -22 137 -22 78 0 97 4 146 28 136 66 211 212 187 363 -16 106 -88 203 -185 251 -66 32 -183 41 -250 19z m182 -179 c59 -33 85 -78 85 -147 0 -200 -278 -233 -330 -40 -14 51 0 107 37 151 52 61 137 76 208 36z"/>
<path d="M3993 2886 c-161 -52 -258 -213 -231 -382 17 -107 88 -203 187 -251 49 -24 68 -28 146 -28 108 0 159 20 233 89 143 134 143 358 0 492 -27 25 -70 55 -96 66 -59 27 -179 34 -239 14z m170 -170 c72 -30 117 -121 97 -196 -39 -144 -223 -175 -307 -51 -27 40 -31 126 -9 169 40 78 137 113 219 78z"/>
</g>
</svg>