<svg width="25" height="22" viewBox="0 0 25 22" fill="none" xmlns="http://www.w3.org/2000/svg">
<g clip-path="url(#clip0_31_283)">
<path d="M13.7543 0.773438C13.5243 0.300781 13.0381 0 12.5043 0C11.9704 0 11.4887 0.300781 11.2543 0.773438L8.4635 6.4582L2.23086 7.36914C1.71002 7.44649 1.276 7.80742 1.11541 8.30156C0.954815 8.7957 1.08502 9.34141 1.45829 9.70664L5.98086 14.1367L4.91315 20.3973C4.82634 20.9129 5.04336 21.4371 5.47304 21.7422C5.90273 22.0473 6.47131 22.0859 6.94006 21.841L12.5086 18.8977L18.0772 21.841C18.546 22.0859 19.1145 22.0516 19.5442 21.7422C19.9739 21.4328 20.1909 20.9129 20.1041 20.3973L19.0321 14.1367L23.5546 9.70664C23.9279 9.34141 24.0625 8.7957 23.8975 8.30156C23.7326 7.80742 23.3029 7.44649 22.7821 7.36914L16.5451 6.4582L13.7543 0.773438Z" fill="#AFAFAF"/>
</g>
<defs>
<clipPath id="clip0_31_283">
<rect width="25" height="22" fill="white"/>
</clipPath>
</defs>
</svg>
